<svg width="16" height="16" xmlns="http://www.w3.org/2000/svg" fill="none">

 <g>
  <title>Layer 1</title>
  <path id="svg_1" stroke-linejoin="round" stroke-linecap="round" stroke-width="1.5" stroke="#FFFFFF" d="m10.4421,0.75l-5.38403,0c-1.14893,0.00635 -2.24827,0.46885 -3.05618,1.28576c-0.80791,0.81692 -1.25821,1.92132 -1.25182,3.07024l0,5.288c-0.00639,1.1489 0.44391,2.2533 1.25182,3.0702c0.80791,0.8169 1.90725,1.2795 3.05618,1.2858l5.38403,0c1.1489,-0.0063 2.2482,-0.4689 3.0561,-1.2858c0.808,-0.8169 1.2582,-1.9213 1.2519,-3.0702l0,-5.288c0.0063,-1.14892 -0.4439,-2.25332 -1.2519,-3.07024c-0.8079,-0.81691 -1.9072,-1.27941 -3.0561,-1.28576z" clip-rule="evenodd" fill-rule="evenodd"/>
  <path id="svg_2" fill="#FFFFFF" d="m4.75006,5.25001c-0.13355,0 -0.25911,-0.05201 -0.35354,-0.14644c-0.09445,-0.09445 -0.14646,-0.22001 -0.14646,-0.35356c0,-0.09923 0.02914,-0.19527 0.08426,-0.27776c0.05515,-0.08254 0.13273,-0.14621 0.22439,-0.18418c0.06099,-0.02526 0.12537,-0.03807 0.19137,-0.03807c0.03267,0 0.06548,0.00324 0.09753,0.00961c0.09732,0.01936 0.18584,0.06668 0.25601,0.13684c0.07016,0.07017 0.11748,0.1587 0.13684,0.25602c0.01936,0.09731 0.00952,0.1972 -0.02846,0.28888c-0.03797,0.09167 -0.10164,0.16925 -0.18415,0.22438c-0.08252,0.05514 -0.17856,0.08428 -0.27779,0.08428z"/>
  <path id="svg_3" fill="#FFFFFF" d="m4.75006,5.75c-0.26521,0 -0.51957,-0.10535 -0.7071,-0.29289c-0.18754,-0.18753 -0.2929,-0.44189 -0.2929,-0.7071c0,-0.19779 0.05865,-0.39113 0.16854,-0.55557c0.10988,-0.16445 0.26606,-0.29263 0.44878,-0.36831c0.18273,-0.07569 0.38379,-0.0955 0.57778,-0.05691c0.19398,0.03859 0.37216,0.13383 0.51201,0.27368c0.13985,0.13985 0.23509,0.31803 0.27368,0.51202c0.03855,0.19398 0.01878,0.39504 -0.05691,0.57777c-0.07568,0.18272 -0.20386,0.3389 -0.36831,0.44878c-0.16444,0.10989 -0.35778,0.16853 -0.55557,0.16853z"/>
  <path id="svg_4" fill="#FFFFFF" d="m7.7501,8.25c-0.066,0 -0.1304,-0.0128 -0.1914,-0.0381c-0.0916,-0.0379 -0.1692,-0.1016 -0.2244,-0.1841c-0.0551,-0.0825 -0.0842,-0.1786 -0.0842,-0.2778c0,-0.1335 0.052,-0.2591 0.1464,-0.3535c0.0945,-0.0945 0.22,-0.1465 0.3536,-0.1465c0.0992,0 0.1952,0.0291 0.2777,0.0843c0.0826,0.0551 0.1462,0.1327 0.1842,0.2244c0.038,0.0916 0.0478,0.1915 0.0285,0.2888c-0.0194,0.0974 -0.0667,0.1859 -0.1369,0.2561c-0.0701,0.0701 -0.1587,0.1174 -0.256,0.1368c-0.032,0.0064 -0.0648,0.0096 -0.0975,0.0096z"/>
  <path id="svg_5" fill="#FFFFFF" d="m7.7501,6.75c0.1978,0 0.3911,0.0587 0.5555,0.1685c0.1645,0.1099 0.2927,0.2661 0.3683,0.4488c0.0757,0.1828 0.0955,0.3838 0.057,0.5778c-0.0386,0.194 -0.1339,0.3722 -0.2737,0.512c-0.1399,0.1399 -0.3181,0.2351 -0.512,0.2737c-0.194,0.0386 -0.3951,0.0188 -0.5778,-0.0569c-0.1827,-0.0757 -0.3389,-0.2039 -0.4488,-0.3683c-0.1099,-0.1645 -0.1685,-0.3578 -0.1685,-0.5556c0,-0.2652 0.1053,-0.5196 0.2929,-0.7071c0.1875,-0.1875 0.4419,-0.2929 0.7071,-0.2929z"/>
  <path id="svg_6" fill="#FFFFFF" d="m10.75,4.24999c0.066,0 0.1304,0.01281 0.1914,0.03807c0.0917,0.03797 0.1693,0.10164 0.2244,0.18415c0.0551,0.08252 0.0843,0.17856 0.0843,0.27779c0,0.13355 -0.052,0.25911 -0.1465,0.35354c-0.0944,0.09445 -0.22,0.14646 -0.3535,0.14646c-0.0993,0 -0.1953,-0.02914 -0.2778,-0.08426c-0.0825,-0.05515 -0.1462,-0.13273 -0.1842,-0.22439c-0.038,-0.09169 -0.0478,-0.19158 -0.0284,-0.28888c0.0193,-0.09733 0.0666,-0.18586 0.1368,-0.25603c0.0702,-0.07016 0.1587,-0.11748 0.256,-0.13684c0.0321,-0.00637 0.0649,-0.00961 0.0975,-0.00961z"/>
  <path id="svg_7" fill="#FFFFFF" d="m10.7501,5.75c-0.1978,0 -0.3912,-0.05865 -0.5556,-0.16854c-0.1645,-0.10988 -0.2926,-0.26606 -0.3683,-0.44878c-0.0757,-0.18273 -0.0955,-0.38379 -0.0569,-0.57778c0.0386,-0.19398 0.1338,-0.37216 0.2737,-0.51201c0.1398,-0.13985 0.318,-0.23509 0.512,-0.27368c0.194,-0.03859 0.395,-0.01878 0.5777,0.05691c0.1828,0.07568 0.3389,0.20386 0.4488,0.36831c0.1099,0.16444 0.1686,0.35778 0.1686,0.55557c0,0.26521 -0.1054,0.51957 -0.2929,0.7071c-0.1876,0.18754 -0.4419,0.2929 -0.7071,0.2929z"/>
  <path id="svg_8" fill="#FFFFFF" d="m10.7501,10.25c0.1335,0 0.2591,0.052 0.3535,0.1464c0.0945,0.0945 0.1465,0.22 0.1465,0.3536c0,0.0992 -0.0292,0.1953 -0.0843,0.2778c-0.0551,0.0825 -0.1327,0.1462 -0.2244,0.1841c-0.061,0.0253 -0.1254,0.0381 -0.1914,0.0381c-0.0326,0 -0.0654,-0.0032 -0.0975,-0.0096c-0.0973,-0.0194 -0.1858,-0.0667 -0.256,-0.1368c-0.0702,-0.0702 -0.1175,-0.1587 -0.1368,-0.2561c-0.0194,-0.0973 -0.0096,-0.1972 0.0284,-0.2888c0.038,-0.0917 0.1017,-0.1693 0.1842,-0.2244c0.0825,-0.0552 0.1785,-0.0843 0.2778,-0.0843z"/>
  <path id="svg_9" fill="#FFFFFF" d="m10.7501,9.75c0.2652,0 0.5195,0.1054 0.7071,0.2929c0.1875,0.1875 0.2929,0.4419 0.2929,0.7071c0,0.1978 -0.0587,0.3911 -0.1686,0.5556c-0.1099,0.1644 -0.266,0.2926 -0.4488,0.3683c-0.1827,0.0757 -0.3837,0.0955 -0.5777,0.0569c-0.194,-0.0386 -0.3722,-0.1338 -0.512,-0.2737c-0.1399,-0.1398 -0.2351,-0.318 -0.2737,-0.512c-0.0386,-0.194 -0.0188,-0.3951 0.0569,-0.5778c0.0757,-0.1827 0.2038,-0.3389 0.3683,-0.4488c0.1644,-0.1099 0.3578,-0.1685 0.5556,-0.1685z"/>
  <path id="svg_10" fill="#FFFFFF" d="m4.75009,11.25c-0.06601,0 -0.13039,-0.0128 -0.19137,-0.0381c-0.09167,-0.0379 -0.16925,-0.1016 -0.22438,-0.1841c-0.05514,-0.0825 -0.08428,-0.1786 -0.08428,-0.2778c0,-0.1335 0.05201,-0.2591 0.14644,-0.3535c0.09445,-0.0945 0.22001,-0.1465 0.35356,-0.1465c0.09923,0 0.19527,0.0291 0.27776,0.0843c0.08254,0.0551 0.14621,0.1327 0.18418,0.2244c0.03798,0.0916 0.04782,0.1915 0.02846,0.2888c-0.01936,0.0974 -0.06668,0.1859 -0.13684,0.2561c-0.07017,0.0701 -0.15869,0.1174 -0.25602,0.1368c-0.03204,0.0064 -0.06485,0.0096 -0.09751,0.0096z"/>
  <path id="svg_11" fill="#FFFFFF" d="m4.75006,9.75c0.19779,0 0.39113,0.0587 0.55557,0.1685c0.16445,0.1099 0.29263,0.2661 0.36831,0.4488c0.07569,0.1828 0.09546,0.3838 0.05691,0.5778c-0.03859,0.194 -0.13383,0.3722 -0.27368,0.512c-0.13985,0.1399 -0.31803,0.2351 -0.51201,0.2737c-0.19399,0.0386 -0.39505,0.0188 -0.57778,-0.0569c-0.18272,-0.0757 -0.3389,-0.2039 -0.44878,-0.3683c-0.10989,-0.1645 -0.16854,-0.3578 -0.16854,-0.5556c0,-0.2652 0.10536,-0.5196 0.2929,-0.7071c0.18753,-0.1875 0.44189,-0.2929 0.7071,-0.2929z"/>
 </g>
</svg>