<?xml version="1.0" encoding="UTF-8" standalone="no"?>
<!-- Created with Inkscape (http://www.inkscape.org/) -->

<svg
   width="910.59338"
   height="881.17676"
   viewBox="0 0 240.92783 233.14468"
   version="1.1"
   id="svg1"
   xmlns="http://www.w3.org/2000/svg"
   xmlns:svg="http://www.w3.org/2000/svg">
  <defs
     id="defs1">
    <marker
       style="overflow:visible"
       id="Dot"
       refX="0"
       refY="0"
       orient="auto"
       markerWidth="0.34999999"
       markerHeight="0.34999999"
       viewBox="0 0 1 1"
       preserveAspectRatio="xMidYMid"
       markerUnits="strokeWidth">
      <path
         transform="scale(0.5)"
         style="fill:context-stroke;fill-rule:evenodd;stroke:none"
         d="M 5,0 C 5,2.76 2.76,5 0,5 -2.76,5 -5,2.76 -5,0 c 0,-2.76 2.3,-5 5,-5 2.76,0 5,2.24 5,5 z"
         id="path17" />
    </marker>
  </defs>
  <g
     id="layer1"
     transform="translate(-17.215599,-24.985537)">
    <path
       style="display:inline;fill:none;stroke:#a6a6a6;stroke-width:26.4583;stroke-linecap:butt;stroke-linejoin:miter;stroke-dasharray:none;stroke-opacity:1;marker-start:url(#Dot);marker-end:url(#Dot)"
       d="M 176.24175,48.140111 C 146.19123,34.446391 109.50739,36.393433 81.075249,53.191194 52.643103,69.988956 33.236737,101.1801 30.730569,134.10837 c -2.506167,32.92827 11.956095,66.69716 37.518513,87.60444 25.562417,20.90728 61.529028,28.38374 93.305858,19.3957 18.50795,-5.23496 35.48361,-15.77332 48.38612,-30.03777 12.90251,-14.26444 21.69026,-32.20895 25.04794,-51.14767"
       id="path13" />
    <path
       style="display:inline;fill:none;stroke:#ffffff;stroke-width:26.4583;stroke-linecap:butt;stroke-linejoin:miter;stroke-dasharray:none;stroke-opacity:1;marker-start:url(#Dot);marker-end:url(#Dot)"
       d="m 176.24175,48.140111 c 21.56902,6.693746 40.36573,21.910127 51.40385,41.61263 11.81725,21.093219 14.53759,47.087549 7.3434,70.170329"
       id="path14" />
  </g>
</svg>
